<svg version="1.0" xmlns="http://www.w3.org/2000/svg"
 width="100" height="100"
 viewBox="0 0 1600.000000 1600.000000"
 preserveAspectRatio="xMidYMid meet">
<g transform="translate(0.000000,1600.000000) scale(0.100000,-0.100000)"
fill="#000000" stroke="none">
<path d="M4500 7500 l0 -5500 500 0 500 0 0 1771 0 1771 117 -108 c143 -130
213 -187 363 -294 539 -385 1197 -611 1857 -638 615 -25 1186 94 1713 358 318
159 563 328 833 574 l117 108 0 -521 0 -521 500 0 500 0 0 4250 0 4250 -500 0
-500 0 0 -2467 c0 -1464 -4 -2539 -10 -2643 -21 -383 -107 -702 -275 -1027
-320 -617 -896 -1086 -1557 -1267 -249 -68 -350 -81 -658 -81 -308 0 -409 13
-658 81 -661 181 -1237 650 -1557 1267 -168 325 -254 644 -275 1027 -6 104
-10 1179 -10 2643 l0 2467 -500 0 -500 0 0 -5500z"/>
</g>
</svg>
